<?xml version="1.0" encoding="UTF-8"?> <svg xmlns="http://www.w3.org/2000/svg" id="Group_106" data-name="Group 106" width="935" height="880" viewBox="0 0 935 880"><rect id="Rectangle_64" data-name="Rectangle 64" width="935" height="880" fill="#fff" opacity="0"></rect><g id="Group_105" data-name="Group 105" transform="translate(-0.5 1)"><text id="Enterprise_Generative_AI_Architecture_Layers" data-name="Enterprise Generative AI Architecture Layers" transform="translate(468.5 47)" fill="#051c2c" font-size="24" font-family="OpenSans-Bold, Open Sans" font-weight="700"><tspan x="-267" y="0">Enterprise Generative AI Architecture Layers</tspan></text><text id="Monitoring_and_maintenance_layer" data-name="Monitoring and maintenance layer" transform="translate(30.5 108.5)" fill="#868686" font-size="16" font-family="OpenSans, Open Sans"><tspan x="0" y="0">MONITORING AND</tspan><tspan x="0" y="22">MAINTENANCE LAYER</tspan></text><g id="Group_90" data-name="Group 90"><g id="Group_86" data-name="Group 86"><rect id="Rectangle_30" data-name="Rectangle 30" width="157" height="127" rx="2" transform="translate(262 88.5)" fill="#fff" stroke="#b3b4b3" stroke-width="1"></rect><text id="Monitoring_system_performance" data-name="Monitoring system performance" transform="translate(275 120.5)" fill="#051c2c" font-size="18" font-family="OpenSans-Semibold, Open Sans" font-weight="600"><tspan x="0" y="0">Monitoring</tspan><tspan x="0" y="24">System</tspan><tspan x="0" y="48">Performance</tspan></text></g><g id="Group_87" data-name="Group 87"><path id="Path_103" data-name="Path 103" d="M1.176,0H468.824A1.178,1.178,0,0,1,470,1.18V57.82A1.178,1.178,0,0,1,468.824,59H1.176A1.178,1.178,0,0,1,0,57.82V1.18A1.178,1.178,0,0,1,1.176,0Z" transform="translate(427 88.5)" fill="#fff" stroke="#b3b4b3" stroke-width="1"></path><text id="Diagnosing_and_resolving_issues" data-name="Diagnosing and resolving issues" transform="translate(580.5 120.5)" fill="#051c2c" font-size="18" font-family="OpenSans-Semibold, Open Sans" font-weight="600"><tspan x="-139" y="0">Diagnosing and Resolving Issues</tspan></text></g><g id="Group_89" data-name="Group 89"><path id="Path_97" data-name="Path 97" d="M2.135,0H264.7c1.179,0,2.135.537,2.135,1.2V58.8c0,.663-.956,1.2-2.135,1.2H2.135C.956,60,0,59.463,0,58.8V1.2C0,.537.956,0,2.135,0Z" transform="translate(630.166 155.5)" fill="#fff" stroke="#b3b4b3" stroke-width="1"></path><text id="Updating_the_system" data-name="Updating the system" transform="translate(643.5 187.5)" fill="#051c2c" font-size="18" font-family="OpenSans-Semibold, Open Sans" font-weight="600"><tspan x="0" y="0">Updating the System</tspan></text></g><g id="Group_88" data-name="Group 88"><path id="Path_97-2" data-name="Path 97" d="M1.561,0H193.578a1.417,1.417,0,0,1,1.561,1.2V58.8a1.417,1.417,0,0,1-1.561,1.2H1.561A1.417,1.417,0,0,1,0,58.8V1.2A1.417,1.417,0,0,1,1.561,0Z" transform="translate(427 155.5)" fill="#fff" stroke="#b3b4b3" stroke-width="1"></path><text id="Scaling_the_system" data-name="Scaling the system" transform="translate(439.5 187.505)" fill="#051c2c" font-size="18" font-family="OpenSans-Semibold, Open Sans" font-weight="600"><tspan x="0" y="0">Scaling the System</tspan></text></g></g><g id="Group_94" data-name="Group 94"><text id="Deployment_and_integration_layer" data-name="Deployment and integration layer" transform="translate(30.5 257)" fill="#868686" font-size="16" font-family="OpenSans, Open Sans"><tspan x="0" y="0">DEPLOYMENT AND</tspan><tspan x="0" y="22">INTEGRATION LAYER</tspan></text><g id="Group_91" data-name="Group 91" transform="translate(0 -0.5)"><path id="Path_110" data-name="Path 110" d="M2517.2,82a1.2,1.2,0,0,1-1.2-1.2V-42.8a1.2,1.2,0,0,1,1.2-1.2h486a1.2,1.2,0,0,1,1.2,1.2v36a1.2,1.2,0,0,1-1.2,1.2H2675.6V80.8a1.2,1.2,0,0,1-1.2,1.2Z" transform="translate(-2254 284.5)" fill="#fff" stroke="#b3b4b3" stroke-width="1"></path><text id="CPUs" transform="translate(296.5 272)" fill="#051c2c" font-size="18" font-family="OpenSans-Semibold, Open Sans" font-weight="600"><tspan x="-22" y="0">CPUs</tspan></text></g><g id="Group_92" data-name="Group 92" transform="translate(0 -0.5)"><path id="Path_116" data-name="Path 116" d="M1.2,0h317a1.2,1.2,0,0,1,1.2,1.2V77.4a1.2,1.2,0,0,1-1.2,1.2H1.2A1.2,1.2,0,0,1,0,77.4V1.2A1.2,1.2,0,0,1,1.2,0Z" transform="translate(430.5 287.405)" fill="#fff" stroke="#b3b4b3" stroke-width="1"></path><text id="GPUs" transform="translate(465.9 318.705)" fill="#051c2c" font-size="18" font-family="OpenSans-Semibold, Open Sans" font-weight="600"><tspan x="-23" y="0">GPUs</tspan></text></g><g id="Group_93" data-name="Group 93"><path id="Path_111" data-name="Path 111" d="M1.108,0H137.392A1.154,1.154,0,0,1,138.5,1.2V124.31a1.154,1.154,0,0,1-1.108,1.2H1.108A1.154,1.154,0,0,1,0,124.31V1.2A1.154,1.154,0,0,1,1.108,0Z" transform="translate(758.5 240)" fill="#fff" stroke="#b3b4b3" stroke-width="1"></path><text id="TPUs" transform="translate(792.5 271)" fill="#051c2c" font-size="18" font-family="OpenSans-Semibold, Open Sans" font-weight="600"><tspan x="-21" y="0">TPUs</tspan></text></g></g><g id="Group_99" data-name="Group 99" transform="translate(0 -1.01)"><text id="Feedback_and_improvement_layer" data-name="Feedback and improvement layer" transform="translate(30.5 408.505)" fill="#868686" font-size="16" font-family="OpenSans, Open Sans"><tspan x="0" y="0">FEEDBACK AND</tspan><tspan x="0" y="22">IMPROVEMENT LAYER</tspan></text><path id="Path_80" data-name="Path 80" d="M1.906,0H150.575c1.053,0,1.906.641,1.906,1.433V118.2c0,.791-.853,1.433-1.906,1.433H1.906C.853,119.629,0,118.987,0,118.2V1.433C0,.641.853,0,1.906,0Z" transform="translate(262 519.5)" fill="#fff" stroke="#b3b4b3" stroke-width="1"></path><path id="Path_80-2" data-name="Path 80" d="M1.906,0H150.575c1.053,0,1.906.641,1.906,1.433V118.2c0,.791-.853,1.433-1.906,1.433H1.906C.853,119.629,0,118.987,0,118.2V1.433C0,.641.853,0,1.906,0Z" transform="translate(423 519.5)" fill="#fff" stroke="#b3b4b3" stroke-width="1"></path><path id="Path_80-3" data-name="Path 80" d="M1.906,0H150.575c1.053,0,1.906.641,1.906,1.433V118.2c0,.791-.853,1.433-1.906,1.433H1.906C.853,119.629,0,118.987,0,118.2V1.433C0,.641.853,0,1.906,0Z" transform="translate(584 519.5)" fill="#fff" stroke="#b3b4b3" stroke-width="1"></path><path id="Path_80-4" data-name="Path 80" d="M1.906,0H150.575c1.053,0,1.906.641,1.906,1.433V118.2c0,.791-.853,1.433-1.906,1.433H1.906C.853,119.629,0,118.987,0,118.2V1.433C0,.641.853,0,1.906,0Z" transform="translate(745 519.5)" fill="#fff" stroke="#b3b4b3" stroke-width="1"></path><g id="Group_95" data-name="Group 95"><path id="Path_80-5" data-name="Path 80" d="M1.906,0H150.575c1.053,0,1.906.641,1.906,1.433V118.2c0,.791-.853,1.433-1.906,1.433H1.906C.853,119.629,0,118.987,0,118.2V1.433C0,.641.853,0,1.906,0Z" transform="translate(262 391.505)" fill="#fff" stroke="#b3b4b3" stroke-width="1"></path><text id="user_surveys" data-name="user surveys" transform="translate(330.5 422.819)" fill="#051c2c" font-size="18" font-family="OpenSans-Semibold, Open Sans" font-weight="600"><tspan x="-56" y="0">User Surveys</tspan></text></g><g id="Group_96" data-name="Group 96"><path id="Path_80-6" data-name="Path 80" d="M1.906,0H150.575c1.053,0,1.906.641,1.906,1.433V118.2c0,.791-.853,1.433-1.906,1.433H1.906C.853,119.629,0,118.987,0,118.2V1.433C0,.641.853,0,1.906,0Z" transform="translate(423 391.505)" fill="#fff" stroke="#b3b4b3" stroke-width="1"></path><text id="user_behavior_analysis" data-name="user behavior analysis" transform="translate(435.5 423.181)" fill="#051c2c" font-size="18" font-family="OpenSans-Semibold, Open Sans" font-weight="600"><tspan x="0" y="0">User Behavior</tspan><tspan x="0" y="19">Analysis</tspan></text></g><g id="Group_97" data-name="Group 97"><path id="Path_80-7" data-name="Path 80" d="M1.906,0H150.575c1.053,0,1.906.641,1.906,1.433V118.2c0,.791-.853,1.433-1.906,1.433H1.906C.853,119.629,0,118.987,0,118.2V1.433C0,.641.853,0,1.906,0Z" transform="translate(584 391.505)" fill="#fff" stroke="#b3b4b3" stroke-width="1"></path><text id="user_interaction_analysis" data-name="user interaction analysis" transform="translate(596 423.181)" fill="#051c2c" font-size="18" font-family="OpenSans-Semibold, Open Sans" font-weight="600"><tspan x="0" y="0">User</tspan><tspan x="0" y="19">Interaction</tspan><tspan x="0" y="38">Analysis</tspan></text></g><g id="Group_98" data-name="Group 98"><path id="Path_80-8" data-name="Path 80" d="M1.906,0H150.575c1.053,0,1.906.641,1.906,1.433V118.2c0,.791-.853,1.433-1.906,1.433H1.906C.853,119.629,0,118.987,0,118.2V1.433C0,.641.853,0,1.906,0Z" transform="translate(745 391.505)" fill="#fff" stroke="#b3b4b3" stroke-width="1"></path><text id="identifying_patterns" data-name="identifying patterns" transform="translate(757.751 423.181)" fill="#051c2c" font-size="18" font-family="OpenSans-Semibold, Open Sans" font-weight="600"><tspan x="0" y="0">Identifying</tspan><tspan x="0" y="19">Patterns</tspan></text></g><text id="trends_and_anomalies" data-name="trends and anomalies" transform="translate(274.5 550.343)" fill="#051c2c" font-size="18" font-family="OpenSans-Semibold, Open Sans" font-weight="600"><tspan x="0" y="0">Trends and</tspan><tspan x="0" y="24">Anomalies</tspan></text><text id="hyperpara-_meter_tuning" data-name="hyperpara- meter tuning" transform="translate(435.481 550.343)" fill="#051c2c" font-size="18" font-family="OpenSans-Semibold, Open Sans" font-weight="600"><tspan x="0" y="0">Hyperpara-</tspan><tspan x="0" y="24">Meter Tuning</tspan></text><text id="regularization" transform="translate(659.241 550.343)" fill="#051c2c" font-size="18" font-family="OpenSans-Semibold, Open Sans" font-weight="600"><tspan x="-62" y="0">Regularization</tspan></text><text id="transfer_learning" data-name="transfer learning" transform="translate(757.751 551)" fill="#051c2c" font-size="18" font-family="OpenSans-Semibold, Open Sans" font-weight="600"><tspan x="0" y="0">Transfer</tspan><tspan x="0" y="24">Learning</tspan></text></g><text id="Generative_model_layer" data-name="Generative model layer" transform="translate(30.5 679.614)" fill="#868686" font-size="16" font-family="OpenSans, Open Sans"><tspan x="0" y="0">GENERATIVE MODEL</tspan><tspan x="0" y="22">LAYER</tspan></text><g id="Group_101" data-name="Group 101"><path id="Path_122" data-name="Path 122" d="M1.2,0H318a1.2,1.2,0,0,1,1.2,1.2V58.8A1.2,1.2,0,0,1,318,60H1.2A1.2,1.2,0,0,1,0,58.8V1.2A1.2,1.2,0,0,1,1.2,0Z" transform="translate(262 662.614)" fill="#fff" stroke="#b3b4b3" stroke-width="1"></path><text id="Model_selection" data-name="Model selection" transform="translate(343.5 693.75)" fill="#051c2c" font-size="18" font-family="OpenSans-Semibold, Open Sans" font-weight="600"><tspan x="-68" y="0">Model Selection</tspan></text></g><g id="Group_100" data-name="Group 100"><path id="Path_124" data-name="Path 124" d="M1.155,0H306.607a1.178,1.178,0,0,1,1.155,1.2V58.8a1.178,1.178,0,0,1-1.155,1.2H1.155A1.178,1.178,0,0,1,0,58.8V1.2A1.178,1.178,0,0,1,1.155,0Z" transform="translate(589.238 662.614)" fill="#fff" stroke="#b3b4b3" stroke-width="1"></path><text id="Model_training" data-name="Model training" transform="translate(666.5 693.75)" fill="#051c2c" font-size="18" font-family="OpenSans-Semibold, Open Sans" font-weight="600"><tspan x="-65" y="0">Model Training</tspan></text></g><text id="Data_processing_layer" data-name="Data processing layer" transform="translate(30.5 764.109)" fill="#868686" font-size="16" font-family="OpenSans, Open Sans"><tspan x="0" y="0">DATA PROCESSING</tspan><tspan x="0" y="22">LAYER</tspan></text><g id="Group_103" data-name="Group 103"><path id="Path_108" data-name="Path 108" d="M1.46,0H181.751a1.348,1.348,0,0,1,1.46,1.2V58.672a1.348,1.348,0,0,1-1.46,1.2H1.46A1.348,1.348,0,0,1,0,58.672V1.2A1.348,1.348,0,0,1,1.46,0Z" transform="translate(495.633 747.109)" fill="#fff" stroke="#b3b4b3" stroke-width="1"></path><text id="Data_preparation" data-name="Data preparation" transform="translate(583.5 778.226)" fill="#051c2c" font-size="18" font-family="OpenSans-Semibold, Open Sans" font-weight="600"><tspan x="-74" y="0">Data Preparation</tspan></text></g><g id="Group_102" data-name="Group 102"><path id="Path_107" data-name="Path 107" d="M1.671,0h206.4c.923,0,1.671.536,1.671,1.2V58.672c0,.661-.748,1.2-1.671,1.2H1.671c-.923,0-1.671-.536-1.671-1.2V1.2C0,.536.748,0,1.671,0Z" transform="translate(687.254 747.109)" fill="#fff" stroke="#b3b4b3" stroke-width="1"></path><text id="Feature_extraction" data-name="Feature extraction" transform="translate(780 778.226)" fill="#051c2c" font-size="18" font-family="OpenSans-Semibold, Open Sans" font-weight="600"><tspan x="-80" y="0">Feature Extraction</tspan></text></g><g id="Group_104" data-name="Group 104"><path id="Path_106" data-name="Path 106" d="M.821,0H224.256c.454,0,.821.536.821,1.2V58.672c0,.661-.368,1.2-.821,1.2H.821c-.454,0-.821-.536-.821-1.2V1.2C0,.536.368,0,.821,0Z" transform="translate(262 747.109)" fill="#fff" stroke="#b3b4b3" stroke-width="1"></path><text id="Data_collection" data-name="Data collection" transform="translate(340.5 778.226)" fill="#051c2c" font-size="18" font-family="OpenSans-Semibold, Open Sans" font-weight="600"><tspan x="-66" y="0">Data Collection</tspan></text></g><text id="LeewayHertz" transform="translate(781 854)" fill="#051c2c" font-size="20" font-family="Georgia"><tspan x="0" y="0">LeewayHertz</tspan></text><path id="Path_145" data-name="Path 145" d="M13.872,145.109h908.4" transform="translate(-0.372 82.643)" fill="none" stroke="#dbd5d5" stroke-width="1" stroke-dasharray="2 2"></path><path id="Path_149" data-name="Path 149" d="M13.872,145.109h908.4" transform="translate(-0.372 233.138)" fill="none" stroke="#dbd5d5" stroke-width="1" stroke-dasharray="2 2"></path><path id="Path_150" data-name="Path 150" d="M13.872,145.109h908.4" transform="translate(-0.372 505.257)" fill="none" stroke="#dbd5d5" stroke-width="1" stroke-dasharray="2 2"></path><path id="Path_151" data-name="Path 151" d="M13.872,145.109h908.4" transform="translate(-0.372 589.752)" fill="none" stroke="#dbd5d5" stroke-width="1" stroke-dasharray="2 2"></path></g></svg> 